<?xml version="1.0" encoding="us-ascii" standalone="no"?><svg xmlns="http://www.w3.org/2000/svg" xmlns:xlink="http://www.w3.org/1999/xlink" contentStyleType="text/css" height="621px" preserveAspectRatio="none" style="width:800px;height:621px;background:#FFFFFF;" version="1.1" viewBox="0 0 800 621" width="800px" zoomAndPan="magnify"><defs/><g><!--class dataset--><g id="elem_dataset"><rect codeLine="2" fill="#F1F1F1" height="219.6113" id="dataset" rx="2.5" ry="2.5" style="stroke:#181818;stroke-width:0.5;" width="225" x="116" y="172.14"/><ellipse cx="182.25" cy="188.14" fill="#ADD1B2" rx="11" ry="11" style="stroke:#181818;stroke-width:1.0;"/><path d="M182.3594,183.6713 Q181.4375,183.6713 180.7031,183.9838 Q179.9844,184.2963 179.4844,184.89 Q178.9844,185.4681 178.7031,186.3431 Q178.4375,187.2181 178.4375,188.3119 Q178.4375,189.7494 178.875,190.7963 Q179.3281,191.8431 180.1719,192.39 Q181.0313,192.9369 182.3438,192.9369 Q183.125,192.9369 183.8125,192.8119 Q184.5156,192.6713 185.5156,192.3588 L185.5156,194.2338 Q184.6563,194.5619 183.8906,194.6869 Q183.1406,194.8119 182.125,194.8119 Q180.2031,194.8119 178.8906,194.015 Q177.5938,193.2025 176.9375,191.7338 Q176.2813,190.2494 176.2813,188.2806 Q176.2813,186.8588 176.6719,185.6869 Q177.0781,184.4994 177.8594,183.6244 Q178.6406,182.7494 179.7813,182.2806 Q180.9219,181.7963 182.3906,181.7963 Q183.3438,181.7963 184.2344,181.9994 Q185.1406,182.1869 186.0781,182.6556 L185.25,184.4369 Q184.4688,184.0619 183.8125,183.8744 Q183.1563,183.6713 182.3594,183.6713 Z " fill="#000000"/><text fill="#000000" font-family="sans-serif" font-size="14" lengthAdjust="spacing" textLength="84" x="202.75" y="193.572">dcat:Dataset</text><line style="stroke:#181818;stroke-width:0.5;" x1="117" x2="340" y1="204.14" y2="204.14"/><text fill="#000000" font-family="sans-serif" font-size="14" lengthAdjust="spacing" textLength="192" x="122" y="223.1059">dcterms:identifier xsd:string</text><text fill="#000000" font-family="sans-serif" font-size="14" lengthAdjust="spacing" textLength="206" x="122" y="242.1739">dcterms:description xsd:string</text><text fill="#000000" font-family="sans-serif" font-size="14" lengthAdjust="spacing" textLength="186" x="122" y="261.2418">dscterms:publisher xsd:any</text><text fill="#000000" font-family="sans-serif" font-size="14" lengthAdjust="spacing" textLength="213" x="122" y="280.3097">dcterms:contactPoint xsd:string</text><text fill="#000000" font-family="sans-serif" font-size="14" lengthAdjust="spacing" textLength="161" x="122" y="299.3776">dcterms:license xsd:any</text><text fill="#000000" font-family="sans-serif" font-size="14" lengthAdjust="spacing" textLength="131" x="122" y="318.4455">dcat:version xsd:str</text><text fill="#000000" font-family="sans-serif" font-size="14" lengthAdjust="spacing" textLength="175" x="122" y="337.5134">dcterms:temporal xsd:any</text><text fill="#000000" font-family="sans-serif" font-size="14" lengthAdjust="spacing" textLength="175" x="122" y="356.5814">dcterms:temporal xsd:any</text><text fill="#000000" font-family="sans-serif" font-size="14" lengthAdjust="spacing" textLength="180" x="122" y="375.6493">dcterms:modified xsd:date</text><line style="stroke:#181818;stroke-width:0.5;" x1="117" x2="340" y1="383.7513" y2="383.7513"/></g><!--class distribution--><g id="elem_distribution"><rect codeLine="14" fill="#F1F1F1" height="143.3396" id="distribution" rx="2.5" ry="2.5" style="stroke:#181818;stroke-width:0.5;" width="205" x="7" y="470.75"/><ellipse cx="49" cy="486.75" fill="#ADD1B2" rx="11" ry="11" style="stroke:#181818;stroke-width:1.0;"/><path d="M49.1094,482.2813 Q48.1875,482.2813 47.4531,482.5938 Q46.7344,482.9063 46.2344,483.5 Q45.7344,484.0781 45.4531,484.9531 Q45.1875,485.8281 45.1875,486.9219 Q45.1875,488.3594 45.625,489.4063 Q46.0781,490.4531 46.9219,491 Q47.7813,491.5469 49.0938,491.5469 Q49.875,491.5469 50.5625,491.4219 Q51.2656,491.2813 52.2656,490.9688 L52.2656,492.8438 Q51.4063,493.1719 50.6406,493.2969 Q49.8906,493.4219 48.875,493.4219 Q46.9531,493.4219 45.6406,492.625 Q44.3438,491.8125 43.6875,490.3438 Q43.0313,488.8594 43.0313,486.8906 Q43.0313,485.4688 43.4219,484.2969 Q43.8281,483.1094 44.6094,482.2344 Q45.3906,481.3594 46.5313,480.8906 Q47.6719,480.4063 49.1406,480.4063 Q50.0938,480.4063 50.9844,480.6094 Q51.8906,480.7969 52.8281,481.2656 L52,483.0469 Q51.2188,482.6719 50.5625,482.4844 Q49.9063,482.2813 49.1094,482.2813 Z " fill="#000000"/><text fill="#000000" font-family="sans-serif" font-size="14" lengthAdjust="spacing" textLength="113" x="69" y="492.182">dcat:Distribution</text><line style="stroke:#181818;stroke-width:0.5;" x1="8" x2="211" y1="502.75" y2="502.75"/><text fill="#000000" font-family="sans-serif" font-size="14" lengthAdjust="spacing" textLength="192" x="13" y="521.7159">dcterms:identifier xsd:string</text><text fill="#000000" font-family="sans-serif" font-size="14" lengthAdjust="spacing" textLength="193" x="13" y="540.7839">dcat:accessURL rdf:Resource</text><text fill="#000000" font-family="sans-serif" font-size="14" lengthAdjust="spacing" textLength="159" x="13" y="559.8518">dcterms:format xsd:any</text><text fill="#000000" font-family="sans-serif" font-size="14" lengthAdjust="spacing" textLength="153" x="13" y="578.9197">dcat:version xsd:string</text><text fill="#000000" font-family="sans-serif" font-size="14" lengthAdjust="spacing" textLength="180" x="13" y="597.9876">dcterms:modified xsd:date</text><line style="stroke:#181818;stroke-width:0.5;" x1="8" x2="211" y1="606.0896" y2="606.0896"/></g><!--class concept--><g id="elem_concept"><rect codeLine="23" fill="#F1F1F1" height="143.3396" id="concept" rx="2.5" ry="2.5" style="stroke:#181818;stroke-width:0.5;" width="204" x="246.5" y="470.75"/><ellipse cx="300.25" cy="486.75" fill="#ADD1B2" rx="11" ry="11" style="stroke:#181818;stroke-width:1.0;"/><path d="M300.3594,482.2813 Q299.4375,482.2813 298.7031,482.5938 Q297.9844,482.9063 297.4844,483.5 Q296.9844,484.0781 296.7031,484.9531 Q296.4375,485.8281 296.4375,486.9219 Q296.4375,488.3594 296.875,489.4063 Q297.3281,490.4531 298.1719,491 Q299.0313,491.5469 300.3438,491.5469 Q301.125,491.5469 301.8125,491.4219 Q302.5156,491.2813 303.5156,490.9688 L303.5156,492.8438 Q302.6563,493.1719 301.8906,493.2969 Q301.1406,493.4219 300.125,493.4219 Q298.2031,493.4219 296.8906,492.625 Q295.5938,491.8125 294.9375,490.3438 Q294.2813,488.8594 294.2813,486.8906 Q294.2813,485.4688 294.6719,484.2969 Q295.0781,483.1094 295.8594,482.2344 Q296.6406,481.3594 297.7813,480.8906 Q298.9219,480.4063 300.3906,480.4063 Q301.3438,480.4063 302.2344,480.6094 Q303.1406,480.7969 304.0781,481.2656 L303.25,483.0469 Q302.4688,482.6719 301.8125,482.4844 Q301.1563,482.2813 300.3594,482.2813 Z " fill="#000000"/><text fill="#000000" font-family="sans-serif" font-size="14" lengthAdjust="spacing" textLength="88" x="320.75" y="492.182">skos:Concept</text><line style="stroke:#181818;stroke-width:0.5;" x1="247.5" x2="449.5" y1="502.75" y2="502.75"/><text fill="#000000" font-family="sans-serif" font-size="14" lengthAdjust="spacing" textLength="168" x="252.5" y="521.7159">skos:prefLabel xsd:string</text><text fill="#000000" font-family="sans-serif" font-size="14" lengthAdjust="spacing" textLength="192" x="252.5" y="540.7839">dcterms:identifier xsd:string</text><text fill="#000000" font-family="sans-serif" font-size="14" lengthAdjust="spacing" textLength="169" x="252.5" y="559.8518">skos:definition xsd:string</text><text fill="#000000" font-family="sans-serif" font-size="14" lengthAdjust="spacing" textLength="161" x="252.5" y="578.9197">skos:example xsd:string</text><text fill="#000000" font-family="sans-serif" font-size="14" lengthAdjust="spacing" textLength="157" x="252.5" y="597.9876">skos:altLabel xsd:string</text><line style="stroke:#181818;stroke-width:0.5;" x1="247.5" x2="449.5" y1="606.0896" y2="606.0896"/></g><!--class metric--><g id="elem_metric"><rect codeLine="32" fill="#F1F1F1" height="143.3396" id="metric" rx="2.5" ry="2.5" style="stroke:#181818;stroke-width:0.5;" width="255" x="538" y="210.27"/><ellipse cx="625.25" cy="226.27" fill="#ADD1B2" rx="11" ry="11" style="stroke:#181818;stroke-width:1.0;"/><path d="M625.3594,221.8013 Q624.4375,221.8013 623.7031,222.1138 Q622.9844,222.4263 622.4844,223.02 Q621.9844,223.5981 621.7031,224.4731 Q621.4375,225.3481 621.4375,226.4419 Q621.4375,227.8794 621.875,228.9263 Q622.3281,229.9731 623.1719,230.52 Q624.0313,231.0669 625.3438,231.0669 Q626.125,231.0669 626.8125,230.9419 Q627.5156,230.8013 628.5156,230.4888 L628.5156,232.3638 Q627.6563,232.6919 626.8906,232.8169 Q626.1406,232.9419 625.125,232.9419 Q623.2031,232.9419 621.8906,232.145 Q620.5938,231.3325 619.9375,229.8638 Q619.2813,228.3794 619.2813,226.4106 Q619.2813,224.9888 619.6719,223.8169 Q620.0781,222.6294 620.8594,221.7544 Q621.6406,220.8794 622.7813,220.4106 Q623.9219,219.9263 625.3906,219.9263 Q626.3438,219.9263 627.2344,220.1294 Q628.1406,220.3169 629.0781,220.7856 L628.25,222.5669 Q627.4688,222.1919 626.8125,222.0044 Q626.1563,221.8013 625.3594,221.8013 Z " fill="#000000"/><text fill="#000000" font-family="sans-serif" font-size="14" lengthAdjust="spacing" textLength="72" x="645.75" y="231.702">dqv:Metric</text><line style="stroke:#181818;stroke-width:0.5;" x1="539" x2="792" y1="242.27" y2="242.27"/><text fill="#000000" font-family="sans-serif" font-size="14" lengthAdjust="spacing" textLength="192" x="544" y="261.2359">dcterms:identifier xsd:string</text><text fill="#000000" font-family="sans-serif" font-size="14" lengthAdjust="spacing" textLength="168" x="544" y="280.3039">skos:prefLabel xsd:string</text><text fill="#000000" font-family="sans-serif" font-size="14" lengthAdjust="spacing" textLength="169" x="544" y="299.3718">skos:definition xsd:string</text><text fill="#000000" font-family="sans-serif" font-size="14" lengthAdjust="spacing" textLength="243" x="544" y="318.4397">dqv:expectedDataType rdf:Resource</text><text fill="#000000" font-family="sans-serif" font-size="14" lengthAdjust="spacing" textLength="204" x="544" y="337.5076">dqv:inDimension rdf:Resource</text><line style="stroke:#181818;stroke-width:0.5;" x1="539" x2="792" y1="345.6096" y2="345.6096"/></g><!--class qualitymeasurement--><g id="elem_qualitymeasurement"><rect codeLine="40" fill="#F1F1F1" height="86.1358" id="qualitymeasurement" rx="2.5" ry="2.5" style="stroke:#181818;stroke-width:0.5;" width="257" x="390" y="7"/><ellipse cx="429.3" cy="23" fill="#ADD1B2" rx="11" ry="11" style="stroke:#181818;stroke-width:1.0;"/><path d="M429.4094,18.5313 Q428.4875,18.5313 427.7531,18.8438 Q427.0344,19.1563 426.5344,19.75 Q426.0344,20.3281 425.7531,21.2031 Q425.4875,22.0781 425.4875,23.1719 Q425.4875,24.6094 425.925,25.6563 Q426.3781,26.7031 427.2219,27.25 Q428.0813,27.7969 429.3938,27.7969 Q430.175,27.7969 430.8625,27.6719 Q431.5656,27.5313 432.5656,27.2188 L432.5656,29.0938 Q431.7063,29.4219 430.9406,29.5469 Q430.1906,29.6719 429.175,29.6719 Q427.2531,29.6719 425.9406,28.875 Q424.6438,28.0625 423.9875,26.5938 Q423.3313,25.1094 423.3313,23.1406 Q423.3313,21.7188 423.7219,20.5469 Q424.1281,19.3594 424.9094,18.4844 Q425.6906,17.6094 426.8313,17.1406 Q427.9719,16.6563 429.4406,16.6563 Q430.3938,16.6563 431.2844,16.8594 Q432.1906,17.0469 433.1281,17.5156 L432.3,19.2969 Q431.5188,18.9219 430.8625,18.7344 Q430.2063,18.5313 429.4094,18.5313 Z " fill="#000000"/><text fill="#000000" font-family="sans-serif" font-size="14" lengthAdjust="spacing" textLength="171" x="448.7" y="28.432">dqv:QualityMeasurement</text><line style="stroke:#181818;stroke-width:0.5;" x1="391" x2="646" y1="39" y2="39"/><text fill="#000000" font-family="sans-serif" font-size="14" lengthAdjust="spacing" textLength="120" x="396" y="57.9659">dqv:value xsd:any</text><text fill="#000000" font-family="sans-serif" font-size="14" lengthAdjust="spacing" textLength="245" x="396" y="77.0339">prov:generatedAtTime xsd:dateTime</text><line style="stroke:#181818;stroke-width:0.5;" x1="391" x2="646" y1="85.1358" y2="85.1358"/></g><!--link dataset to distribution--><g id="link_dataset_distribution"><path codeLine="46" d="M178.21,392.19 C166.03,418.64 155.8296,440.7901 144.6996,464.9601 " fill="none" id="dataset-to-distribution" style="stroke:#181818;stroke-width:1.0;"/><polygon fill="#181818" points="142.19,470.41,149.5877,463.9082,144.2814,465.8684,142.3212,460.562,142.19,470.41" style="stroke:#181818;stroke-width:1.0;"/><text fill="#000000" font-family="sans-serif" font-size="13" lengthAdjust="spacing" textLength="99" x="163.5" y="436.647">dcat:distribution</text></g><!--link dataset to dataset--><g id="link_dataset_dataset"><path codeLine="47" d="M341.36,255.54 C361.74,258.93 376,267.73 376,281.94 C376,296.16 367.6587,303.9755 347.2787,307.3655 " fill="none" id="dataset-to-dataset" style="stroke:#181818;stroke-width:1.0;"/><polygon fill="#181818" points="341.36,308.35,350.8944,310.819,346.2922,307.5296,349.5817,302.9275,341.36,308.35" style="stroke:#181818;stroke-width:1.0;"/><text fill="#000000" font-family="sans-serif" font-size="13" lengthAdjust="spacing" textLength="132" x="382" y="287.337">prov:wasDerivedFrom</text></g><!--link dataset to concept--><g id="link_dataset_concept"><path codeLine="48" d="M279.22,392.19 C291.5,418.64 301.7837,440.7978 313.0037,464.9678 " fill="none" id="dataset-to-concept" style="stroke:#181818;stroke-width:1.0;"/><polygon fill="#181818" points="315.53,470.41,315.3686,460.5625,313.4247,465.8748,308.1124,463.9309,315.53,470.41" style="stroke:#181818;stroke-width:1.0;"/><text fill="#000000" font-family="sans-serif" font-size="13" lengthAdjust="spacing" textLength="68" x="300.5" y="436.647">dcat:theme</text></g><!--link qualitymeasurement to dataset--><g id="link_qualitymeasurement_dataset"><path codeLine="50" d="M464.97,93.5 C430.36,120.94 388.6918,153.9626 346.1818,187.6626 " fill="none" id="qualitymeasurement-to-dataset" style="stroke:#181818;stroke-width:1.0;"/><polygon fill="#181818" points="341.48,191.39,351.0176,188.9335,345.3982,188.2839,346.0478,182.6644,341.48,191.39" style="stroke:#181818;stroke-width:1.0;"/><text fill="#000000" font-family="sans-serif" font-size="13" lengthAdjust="spacing" textLength="106" x="426.5" y="138.037">dqv:computedOn</text></g><!--link qualitymeasurement to metric--><g id="link_qualitymeasurement_metric"><path codeLine="51" d="M545.63,93.5 C566.46,126.06 592.4376,166.6951 616.8076,204.8051 " fill="none" id="qualitymeasurement-to-metric" style="stroke:#181818;stroke-width:1.0;"/><polygon fill="#181818" points="620.04,209.86,618.5613,200.1228,617.3463,205.6476,611.8215,204.4327,620.04,209.86" style="stroke:#181818;stroke-width:1.0;"/><text fill="#000000" font-family="sans-serif" font-size="13" lengthAdjust="spacing" textLength="101" x="575.5" y="138.037">dqv:inDimension</text></g><!--SRC=[bLDBJiD03Dtd557tlK0MI8YALIkWAWTmPvnsnFmwdeHMYBlZ_23JfWMoSlnxViyUeO4edqa1iLX01C8uou5osTdvHvRp9qN4OAXG4crKfSAG7qaM58EokoH38ecWV5JENgHGd-EhhLQqxvk0FIKTXBCHH7nsoiPhA5e9j8HdzKoXna0ZwAGeel4kW9v4lHaqJZQaPHjaPJ3xp38nLaurGswhXdOdtyZn3msv5GY1HA_hPHvaMQoHN1K49XrA5mp4NycVYtR9OaI3tXmL3yuAzDq1YCxkXs_3Fc2vX2tgQmZNgRNr4ajbrTHfj64yWl4Q9sEWumNoU0c7kbWXkqKxksdDF-j-czmlepVGUFJ8AB9vG9kJnudLSPQo2sNuR9icIKBAuwK2hU9fXK1LG2xezd7etER7FV3ZcXfqbRu67rnTxD1Yu4NB-xXXwE_5Dp-jVCChdy_lqfCj-iCUEsTfUczpPelr3hJ0e6gKZy6PD7UufQ5ht3E1MPPDS3fhtP0JplYAIJpn15Sg-eNt1IEX6UGB]--></g></svg>