<?xml version="1.0" encoding="us-ascii" standalone="no"?><svg xmlns="http://www.w3.org/2000/svg" xmlns:xlink="http://www.w3.org/1999/xlink" contentStyleType="text/css" height="558px" preserveAspectRatio="none" style="width:1379px;height:558px;background:#FFFFFF;" version="1.1" viewBox="0 0 1379 558" width="1379px" zoomAndPan="magnify"><defs/><g><!--class dataset--><g id="elem_dataset"><rect codeLine="6" fill="#F1F1F1" height="154.4075" id="dataset" rx="2.5" ry="2.5" style="stroke:#181818;stroke-width:0.5;" width="246" x="462.5" y="183.2"/><ellipse cx="539.25" cy="199.2" fill="#ADD1B2" rx="11" ry="11" style="stroke:#181818;stroke-width:1.0;"/><path d="M539.3594,194.7313 Q538.4375,194.7313 537.7031,195.0438 Q536.9844,195.3563 536.4844,195.95 Q535.9844,196.5281 535.7031,197.4031 Q535.4375,198.2781 535.4375,199.3719 Q535.4375,200.8094 535.875,201.8563 Q536.3281,202.9031 537.1719,203.45 Q538.0313,203.9969 539.3438,203.9969 Q540.125,203.9969 540.8125,203.8719 Q541.5156,203.7313 542.5156,203.4188 L542.5156,205.2938 Q541.6563,205.6219 540.8906,205.7469 Q540.1406,205.8719 539.125,205.8719 Q537.2031,205.8719 535.8906,205.075 Q534.5938,204.2625 533.9375,202.7938 Q533.2813,201.3094 533.2813,199.3406 Q533.2813,197.9188 533.6719,196.7469 Q534.0781,195.5594 534.8594,194.6844 Q535.6406,193.8094 536.7813,193.3406 Q537.9219,192.8563 539.3906,192.8563 Q540.3438,192.8563 541.2344,193.0594 Q542.1406,193.2469 543.0781,193.7156 L542.25,195.4969 Q541.4688,195.1219 540.8125,194.9344 Q540.1563,194.7313 539.3594,194.7313 Z " fill="#000000"/><text fill="#000000" font-family="sans-serif" font-size="14" lengthAdjust="spacing" textLength="84" x="559.75" y="204.632">dcat:Dataset</text><line style="stroke:#181818;stroke-width:0.5;" x1="463.5" x2="707.5" y1="215.2" y2="215.2"/><text fill="#000000" font-family="sans-serif" font-size="14" lengthAdjust="spacing" textLength="220" x="468.5" y="234.1659">dcterms:identifier xsd:string 1..1</text><text fill="#000000" font-family="sans-serif" font-size="14" lengthAdjust="spacing" textLength="234" x="468.5" y="253.2339">dcterms:description xsd:string 1..1</text><text fill="#000000" font-family="sans-serif" font-size="14" lengthAdjust="spacing" textLength="131" x="468.5" y="272.3018">dcat:version xsd:str</text><text fill="#000000" font-family="sans-serif" font-size="14" lengthAdjust="spacing" textLength="175" x="468.5" y="291.3697">dcterms:temporal xsd:any</text><text fill="#000000" font-family="sans-serif" font-size="14" lengthAdjust="spacing" textLength="159" x="468.5" y="310.4376">dcterms:spatial xsd:any</text><text fill="#000000" font-family="sans-serif" font-size="14" lengthAdjust="spacing" textLength="180" x="468.5" y="329.5055">dcterms:modified xsd:date</text></g><!--class catalog--><g id="elem_catalog"><rect codeLine="15" fill="#F1F1F1" height="97.2038" id="catalog" rx="2.5" ry="2.5" style="stroke:#181818;stroke-width:0.5;" width="232" x="469.5" y="7"/><ellipse cx="539.25" cy="23" fill="#ADD1B2" rx="11" ry="11" style="stroke:#181818;stroke-width:1.0;"/><path d="M539.3594,18.5313 Q538.4375,18.5313 537.7031,18.8438 Q536.9844,19.1563 536.4844,19.75 Q535.9844,20.3281 535.7031,21.2031 Q535.4375,22.0781 535.4375,23.1719 Q535.4375,24.6094 535.875,25.6563 Q536.3281,26.7031 537.1719,27.25 Q538.0313,27.7969 539.3438,27.7969 Q540.125,27.7969 540.8125,27.6719 Q541.5156,27.5313 542.5156,27.2188 L542.5156,29.0938 Q541.6563,29.4219 540.8906,29.5469 Q540.1406,29.6719 539.125,29.6719 Q537.2031,29.6719 535.8906,28.875 Q534.5938,28.0625 533.9375,26.5938 Q533.2813,25.1094 533.2813,23.1406 Q533.2813,21.7188 533.6719,20.5469 Q534.0781,19.3594 534.8594,18.4844 Q535.6406,17.6094 536.7813,17.1406 Q537.9219,16.6563 539.3906,16.6563 Q540.3438,16.6563 541.2344,16.8594 Q542.1406,17.0469 543.0781,17.5156 L542.25,19.2969 Q541.4688,18.9219 540.8125,18.7344 Q540.1563,18.5313 539.3594,18.5313 Z " fill="#000000"/><text fill="#000000" font-family="sans-serif" font-size="14" lengthAdjust="spacing" textLength="84" x="559.75" y="28.432">dcat:Catalog</text><line style="stroke:#181818;stroke-width:0.5;" x1="470.5" x2="700.5" y1="39" y2="39"/><text fill="#000000" font-family="sans-serif" font-size="14" lengthAdjust="spacing" textLength="184" x="475.5" y="57.9659">dcterms:title xsd:string 1..1</text><text fill="#000000" font-family="sans-serif" font-size="14" lengthAdjust="spacing" textLength="220" x="475.5" y="77.0339">dcterms:identifier xsd:string 1..1</text><text fill="#000000" font-family="sans-serif" font-size="14" lengthAdjust="spacing" textLength="206" x="475.5" y="96.1018">dcterms:description xsd:string</text></g><!--class agent--><g id="elem_agent"><rect codeLine="21" fill="#FFFFFF" height="72.4799" id="agent" rx="2.5" ry="2.5" style="stroke:#181818;stroke-width:0.5;" width="151" x="7" y="448.04"/><ellipse cx="32.8" cy="470.746" fill="#ADD1B2" rx="11" ry="11" style="stroke:#181818;stroke-width:1.0;"/><path d="M32.9094,466.2773 Q31.9875,466.2773 31.2531,466.5898 Q30.5344,466.9023 30.0344,467.496 Q29.5344,468.0741 29.2531,468.9491 Q28.9875,469.8241 28.9875,470.9179 Q28.9875,472.3554 29.425,473.4023 Q29.8781,474.4491 30.7219,474.996 Q31.5812,475.5429 32.8938,475.5429 Q33.675,475.5429 34.3625,475.4179 Q35.0656,475.2773 36.0656,474.9648 L36.0656,476.8398 Q35.2063,477.1679 34.4406,477.2929 Q33.6906,477.4179 32.675,477.4179 Q30.7531,477.4179 29.4406,476.621 Q28.1437,475.8085 27.4875,474.3398 Q26.8312,472.8554 26.8312,470.8866 Q26.8312,469.4648 27.2219,468.2929 Q27.6281,467.1054 28.4094,466.2304 Q29.1906,465.3554 30.3312,464.8866 Q31.4719,464.4023 32.9406,464.4023 Q33.8938,464.4023 34.7844,464.6054 Q35.6906,464.7929 36.6281,465.2616 L35.8,467.0429 Q35.0188,466.6679 34.3625,466.4804 Q33.7063,466.2773 32.9094,466.2773 Z " fill="#000000"/><text fill="#000000" font-family="sans-serif" font-size="12" font-style="italic" lengthAdjust="spacing" textLength="99" x="47.2" y="465.8681">&#171;BlankNodeOrIRI&#187;</text><text fill="#000000" font-family="sans-serif" font-size="14" lengthAdjust="spacing" textLength="70" x="61.7" y="484.35">foaf:Agent</text><line style="stroke:#181818;stroke-width:0.5;" x1="8" x2="157" y1="493.452" y2="493.452"/><text fill="#000000" font-family="sans-serif" font-size="14" lengthAdjust="spacing" textLength="139" x="13" y="512.418">foaf:name xsd:string</text></g><!--class license--><g id="elem_license"><rect codeLine="26" fill="#FFFFFF" height="72.4799" id="license" rx="2.5" ry="2.5" style="stroke:#181818;stroke-width:0.5;" width="168" x="930.5" y="448.04"/><ellipse cx="957.65" cy="470.746" fill="#ADD1B2" rx="11" ry="11" style="stroke:#181818;stroke-width:1.0;"/><path d="M957.7594,466.2773 Q956.8375,466.2773 956.1031,466.5898 Q955.3844,466.9023 954.8844,467.496 Q954.3844,468.0741 954.1031,468.9491 Q953.8375,469.8241 953.8375,470.9179 Q953.8375,472.3554 954.275,473.4023 Q954.7281,474.4491 955.5719,474.996 Q956.4313,475.5429 957.7438,475.5429 Q958.525,475.5429 959.2125,475.4179 Q959.9156,475.2773 960.9156,474.9648 L960.9156,476.8398 Q960.0563,477.1679 959.2906,477.2929 Q958.5406,477.4179 957.525,477.4179 Q955.6031,477.4179 954.2906,476.621 Q952.9938,475.8085 952.3375,474.3398 Q951.6813,472.8554 951.6813,470.8866 Q951.6813,469.4648 952.0719,468.2929 Q952.4781,467.1054 953.2594,466.2304 Q954.0406,465.3554 955.1813,464.8866 Q956.3219,464.4023 957.7906,464.4023 Q958.7438,464.4023 959.6344,464.6054 Q960.5406,464.7929 961.4781,465.2616 L960.65,467.0429 Q959.8688,466.6679 959.2125,466.4804 Q958.5563,466.2773 957.7594,466.2773 Z " fill="#000000"/><text fill="#000000" font-family="sans-serif" font-size="12" font-style="italic" lengthAdjust="spacing" textLength="99" x="979.35" y="465.8681">&#171;BlankNodeOrIRI&#187;</text><text fill="#000000" font-family="sans-serif" font-size="14" lengthAdjust="spacing" textLength="109" x="974.35" y="484.35">dcterms:License</text><line style="stroke:#181818;stroke-width:0.5;" x1="931.5" x2="1097.5" y1="493.452" y2="493.452"/><text fill="#000000" font-family="sans-serif" font-size="14" lengthAdjust="spacing" textLength="156" x="936.5" y="512.418">dcterms:title xsd:string</text></g><!--class kind--><g id="elem_kind"><rect codeLine="30" fill="#FFFFFF" height="72.4799" id="kind" rx="2.5" ry="2.5" style="stroke:#181818;stroke-width:0.5;" width="169" x="459" y="448.04"/><ellipse cx="492.9" cy="470.746" fill="#ADD1B2" rx="11" ry="11" style="stroke:#181818;stroke-width:1.0;"/><path d="M493.0094,466.2773 Q492.0875,466.2773 491.3531,466.5898 Q490.6344,466.9023 490.1344,467.496 Q489.6344,468.0741 489.3531,468.9491 Q489.0875,469.8241 489.0875,470.9179 Q489.0875,472.3554 489.525,473.4023 Q489.9781,474.4491 490.8219,474.996 Q491.6813,475.5429 492.9938,475.5429 Q493.775,475.5429 494.4625,475.4179 Q495.1656,475.2773 496.1656,474.9648 L496.1656,476.8398 Q495.3063,477.1679 494.5406,477.2929 Q493.7906,477.4179 492.775,477.4179 Q490.8531,477.4179 489.5406,476.621 Q488.2438,475.8085 487.5875,474.3398 Q486.9313,472.8554 486.9313,470.8866 Q486.9313,469.4648 487.3219,468.2929 Q487.7281,467.1054 488.5094,466.2304 Q489.2906,465.3554 490.4313,464.8866 Q491.5719,464.4023 493.0406,464.4023 Q493.9938,464.4023 494.8844,464.6054 Q495.7906,464.7929 496.7281,465.2616 L495.9,467.0429 Q495.1188,466.6679 494.4625,466.4804 Q493.8063,466.2773 493.0094,466.2773 Z " fill="#000000"/><text fill="#000000" font-family="sans-serif" font-size="12" font-style="italic" lengthAdjust="spacing" textLength="99" x="509.1" y="465.8681">&#171;BlankNodeOrIRI&#187;</text><text fill="#000000" font-family="sans-serif" font-size="14" lengthAdjust="spacing" textLength="72" x="522.6" y="484.35">vcard:Kind</text><line style="stroke:#181818;stroke-width:0.5;" x1="460" x2="627" y1="493.452" y2="493.452"/><text fill="#000000" font-family="sans-serif" font-size="14" lengthAdjust="spacing" textLength="157" x="465" y="512.418">vcard:hasEmail xsd:any</text></g><!--class distribution--><g id="elem_distribution"><rect codeLine="34" fill="#F1F1F1" height="135.3396" id="distribution" rx="2.5" ry="2.5" style="stroke:#181818;stroke-width:0.5;" width="233" x="663" y="416.61"/><ellipse cx="718.75" cy="432.61" fill="#ADD1B2" rx="11" ry="11" style="stroke:#181818;stroke-width:1.0;"/><path d="M718.8594,428.1413 Q717.9375,428.1413 717.2031,428.4538 Q716.4844,428.7663 715.9844,429.36 Q715.4844,429.9381 715.2031,430.8131 Q714.9375,431.6881 714.9375,432.7819 Q714.9375,434.2194 715.375,435.2663 Q715.8281,436.3131 716.6719,436.86 Q717.5313,437.4069 718.8438,437.4069 Q719.625,437.4069 720.3125,437.2819 Q721.0156,437.1413 722.0156,436.8288 L722.0156,438.7038 Q721.1563,439.0319 720.3906,439.1569 Q719.6406,439.2819 718.625,439.2819 Q716.7031,439.2819 715.3906,438.485 Q714.0938,437.6725 713.4375,436.2038 Q712.7813,434.7194 712.7813,432.7506 Q712.7813,431.3288 713.1719,430.1569 Q713.5781,428.9694 714.3594,428.0944 Q715.1406,427.2194 716.2813,426.7506 Q717.4219,426.2663 718.8906,426.2663 Q719.8438,426.2663 720.7344,426.4694 Q721.6406,426.6569 722.5781,427.1256 L721.75,428.9069 Q720.9688,428.5319 720.3125,428.3444 Q719.6563,428.1413 718.8594,428.1413 Z " fill="#000000"/><text fill="#000000" font-family="sans-serif" font-size="14" lengthAdjust="spacing" textLength="113" x="739.25" y="438.042">dcat:Distribution</text><line style="stroke:#181818;stroke-width:0.5;" x1="664" x2="895" y1="448.61" y2="448.61"/><text fill="#000000" font-family="sans-serif" font-size="14" lengthAdjust="spacing" textLength="220" x="669" y="467.5759">dcterms:identifier xsd:string 1..1</text><text fill="#000000" font-family="sans-serif" font-size="14" lengthAdjust="spacing" textLength="221" x="669" y="486.6439">dcat:accessURL rdf:Resource 1..1</text><text fill="#000000" font-family="sans-serif" font-size="14" lengthAdjust="spacing" textLength="159" x="669" y="505.7118">dcterms:format xsd:any</text><text fill="#000000" font-family="sans-serif" font-size="14" lengthAdjust="spacing" textLength="153" x="669" y="524.7797">dcat:version xsd:string</text><text fill="#000000" font-family="sans-serif" font-size="14" lengthAdjust="spacing" textLength="180" x="669" y="543.8476">dcterms:modified xsd:date</text></g><!--class concept--><g id="elem_concept"><rect codeLine="43" fill="#F1F1F1" height="135.3396" id="concept" rx="2.5" ry="2.5" style="stroke:#181818;stroke-width:0.5;" width="232" x="192.5" y="416.61"/><ellipse cx="260.25" cy="432.61" fill="#ADD1B2" rx="11" ry="11" style="stroke:#181818;stroke-width:1.0;"/><path d="M260.3594,428.1413 Q259.4375,428.1413 258.7031,428.4538 Q257.9844,428.7663 257.4844,429.36 Q256.9844,429.9381 256.7031,430.8131 Q256.4375,431.6881 256.4375,432.7819 Q256.4375,434.2194 256.875,435.2663 Q257.3281,436.3131 258.1719,436.86 Q259.0313,437.4069 260.3438,437.4069 Q261.125,437.4069 261.8125,437.2819 Q262.5156,437.1413 263.5156,436.8288 L263.5156,438.7038 Q262.6563,439.0319 261.8906,439.1569 Q261.1406,439.2819 260.125,439.2819 Q258.2031,439.2819 256.8906,438.485 Q255.5938,437.6725 254.9375,436.2038 Q254.2813,434.7194 254.2813,432.7506 Q254.2813,431.3288 254.6719,430.1569 Q255.0781,428.9694 255.8594,428.0944 Q256.6406,427.2194 257.7813,426.7506 Q258.9219,426.2663 260.3906,426.2663 Q261.3438,426.2663 262.2344,426.4694 Q263.1406,426.6569 264.0781,427.1256 L263.25,428.9069 Q262.4688,428.5319 261.8125,428.3444 Q261.1563,428.1413 260.3594,428.1413 Z " fill="#000000"/><text fill="#000000" font-family="sans-serif" font-size="14" lengthAdjust="spacing" textLength="88" x="280.75" y="438.042">skos:Concept</text><line style="stroke:#181818;stroke-width:0.5;" x1="193.5" x2="423.5" y1="448.61" y2="448.61"/><text fill="#000000" font-family="sans-serif" font-size="14" lengthAdjust="spacing" textLength="220" x="198.5" y="467.5759">dcterms:identifier xsd:string 1..1</text><text fill="#000000" font-family="sans-serif" font-size="14" lengthAdjust="spacing" textLength="196" x="198.5" y="486.6439">skos:prefLabel xsd:string 1..1</text><text fill="#000000" font-family="sans-serif" font-size="14" lengthAdjust="spacing" textLength="169" x="198.5" y="505.7118">skos:definition xsd:string</text><text fill="#000000" font-family="sans-serif" font-size="14" lengthAdjust="spacing" textLength="161" x="198.5" y="524.7797">skos:example xsd:string</text><text fill="#000000" font-family="sans-serif" font-size="14" lengthAdjust="spacing" textLength="157" x="198.5" y="543.8476">skos:altLabel xsd:string</text></g><!--class metric--><g id="elem_metric"><rect codeLine="52" fill="#F1F1F1" height="135.3396" id="metric" rx="2.5" ry="2.5" style="stroke:#181818;stroke-width:0.5;" width="255" x="1117" y="192.74"/><ellipse cx="1204.25" cy="208.74" fill="#ADD1B2" rx="11" ry="11" style="stroke:#181818;stroke-width:1.0;"/><path d="M1204.3594,204.2713 Q1203.4375,204.2713 1202.7031,204.5838 Q1201.9844,204.8963 1201.4844,205.49 Q1200.9844,206.0681 1200.7031,206.9431 Q1200.4375,207.8181 1200.4375,208.9119 Q1200.4375,210.3494 1200.875,211.3963 Q1201.3281,212.4431 1202.1719,212.99 Q1203.0313,213.5369 1204.3438,213.5369 Q1205.125,213.5369 1205.8125,213.4119 Q1206.5156,213.2713 1207.5156,212.9588 L1207.5156,214.8338 Q1206.6563,215.1619 1205.8906,215.2869 Q1205.1406,215.4119 1204.125,215.4119 Q1202.2031,215.4119 1200.8906,214.615 Q1199.5938,213.8025 1198.9375,212.3338 Q1198.2813,210.8494 1198.2813,208.8806 Q1198.2813,207.4588 1198.6719,206.2869 Q1199.0781,205.0994 1199.8594,204.2244 Q1200.6406,203.3494 1201.7813,202.8806 Q1202.9219,202.3963 1204.3906,202.3963 Q1205.3438,202.3963 1206.2344,202.5994 Q1207.1406,202.7869 1208.0781,203.2556 L1207.25,205.0369 Q1206.4688,204.6619 1205.8125,204.4744 Q1205.1563,204.2713 1204.3594,204.2713 Z " fill="#000000"/><text fill="#000000" font-family="sans-serif" font-size="14" lengthAdjust="spacing" textLength="72" x="1224.75" y="214.172">dqv:Metric</text><line style="stroke:#181818;stroke-width:0.5;" x1="1118" x2="1371" y1="224.74" y2="224.74"/><text fill="#000000" font-family="sans-serif" font-size="14" lengthAdjust="spacing" textLength="220" x="1123" y="243.7059">dcterms:identifier xsd:string 1..1</text><text fill="#000000" font-family="sans-serif" font-size="14" lengthAdjust="spacing" textLength="196" x="1123" y="262.7739">skos:prefLabel xsd:string 1..1</text><text fill="#000000" font-family="sans-serif" font-size="14" lengthAdjust="spacing" textLength="169" x="1123" y="281.8418">skos:definition xsd:string</text><text fill="#000000" font-family="sans-serif" font-size="14" lengthAdjust="spacing" textLength="243" x="1123" y="300.9097">dqv:expectedDataType rdf:Resource</text><text fill="#000000" font-family="sans-serif" font-size="14" lengthAdjust="spacing" textLength="204" x="1123" y="319.9776">dqv:inDimension rdf:Resource</text></g><!--class qualitymeasurement--><g id="elem_qualitymeasurement"><rect codeLine="60" fill="#F1F1F1" height="97.2038" id="qualitymeasurement" rx="2.5" ry="2.5" style="stroke:#181818;stroke-width:0.5;" width="257" x="1028" y="7"/><ellipse cx="1067.3" cy="23" fill="#ADD1B2" rx="11" ry="11" style="stroke:#181818;stroke-width:1.0;"/><path d="M1067.4094,18.5313 Q1066.4875,18.5313 1065.7531,18.8438 Q1065.0344,19.1563 1064.5344,19.75 Q1064.0344,20.3281 1063.7531,21.2031 Q1063.4875,22.0781 1063.4875,23.1719 Q1063.4875,24.6094 1063.925,25.6563 Q1064.3781,26.7031 1065.2219,27.25 Q1066.0813,27.7969 1067.3938,27.7969 Q1068.175,27.7969 1068.8625,27.6719 Q1069.5656,27.5313 1070.5656,27.2188 L1070.5656,29.0938 Q1069.7063,29.4219 1068.9406,29.5469 Q1068.1906,29.6719 1067.175,29.6719 Q1065.2531,29.6719 1063.9406,28.875 Q1062.6438,28.0625 1061.9875,26.5938 Q1061.3313,25.1094 1061.3313,23.1406 Q1061.3313,21.7188 1061.7219,20.5469 Q1062.1281,19.3594 1062.9094,18.4844 Q1063.6906,17.6094 1064.8313,17.1406 Q1065.9719,16.6563 1067.4406,16.6563 Q1068.3938,16.6563 1069.2844,16.8594 Q1070.1906,17.0469 1071.1281,17.5156 L1070.3,19.2969 Q1069.5188,18.9219 1068.8625,18.7344 Q1068.2063,18.5313 1067.4094,18.5313 Z " fill="#000000"/><text fill="#000000" font-family="sans-serif" font-size="14" lengthAdjust="spacing" textLength="171" x="1086.7" y="28.432">dqv:QualityMeasurement</text><line style="stroke:#181818;stroke-width:0.5;" x1="1029" x2="1284" y1="39" y2="39"/><text fill="#000000" font-family="sans-serif" font-size="14" lengthAdjust="spacing" textLength="220" x="1034" y="57.9659">dcterms:identifier xsd:string 1..1</text><text fill="#000000" font-family="sans-serif" font-size="14" lengthAdjust="spacing" textLength="120" x="1034" y="77.0339">dqv:value xsd:any</text><text fill="#000000" font-family="sans-serif" font-size="14" lengthAdjust="spacing" textLength="245" x="1034" y="96.1018">prov:generatedAtTime xsd:dateTime</text></g><!--link dataset to distribution--><g id="link_dataset_distribution"><path codeLine="67" d="M654.45,338.09 C663.25,347.99 672.11,358.02 680.5,367.61 C694.25,383.33 705.035,395.8047 718.785,411.8447 " fill="none" id="dataset-to-distribution" style="stroke:#181818;stroke-width:1.0;"/><polygon fill="#181818" points="722.69,416.4,719.8694,406.9637,719.4358,412.6039,713.7956,412.1703,722.69,416.4" style="stroke:#181818;stroke-width:1.0;"/><text fill="#000000" font-family="sans-serif" font-size="13" lengthAdjust="spacing" textLength="99" x="698.5" y="382.507">dcat:distribution</text></g><!--link dataset to dataset--><g id="link_dataset_dataset"><path codeLine="68" d="M708.72,240.07 C729.3,242.91 743.5,249.69 743.5,260.41 C743.5,271.12 735.2437,277.0798 714.6637,279.9198 " fill="none" id="dataset-to-dataset" style="stroke:#181818;stroke-width:1.0;"/><polygon fill="#181818" points="708.72,280.74,718.1823,283.4721,713.6731,280.0565,717.0887,275.5472,708.72,280.74" style="stroke:#181818;stroke-width:1.0;"/><text fill="#000000" font-family="sans-serif" font-size="13" lengthAdjust="spacing" textLength="132" x="749.5" y="265.807">prov:wasDerivedFrom</text></g><!--link dataset to concept--><g id="link_dataset_concept"><path codeLine="69" d="M489.78,338.07 C458.04,363.5 427.6527,387.8387 396.8827,412.4887 " fill="none" id="dataset-to-concept" style="stroke:#181818;stroke-width:1.0;"/><polygon fill="#181818" points="392.2,416.24,401.7249,413.7348,396.1022,413.1139,396.7231,407.4912,392.2,416.24" style="stroke:#181818;stroke-width:1.0;"/><text fill="#000000" font-family="sans-serif" font-size="13" lengthAdjust="spacing" textLength="68" x="448.5" y="382.507">dcat:theme</text></g><!--link dataset to agent--><g id="link_dataset_agent"><path codeLine="70" d="M462.12,298.76 C378.77,326.23 267.57,367.27 175.5,416.61 C159.04,425.43 146.9763,433.2226 132.1663,444.0326 " fill="none" id="dataset-to-agent" style="stroke:#181818;stroke-width:1.0;"/><polygon fill="#181818" points="127.32,447.57,136.9477,445.4948,131.3586,444.6222,132.2312,439.033,127.32,447.57" style="stroke:#181818;stroke-width:1.0;"/><text fill="#000000" font-family="sans-serif" font-size="13" lengthAdjust="spacing" textLength="85" x="274.5" y="382.507">dcat:publisher</text></g><!--link dataset to kind--><g id="link_dataset_kind"><path codeLine="71" d="M570.99,338.07 C563.95,375.27 556.9362,412.2847 551.3562,441.7547 " fill="none" id="dataset-to-kind" style="stroke:#181818;stroke-width:1.0;"/><polygon fill="#181818" points="550.24,447.65,555.8445,439.5513,551.1702,442.7373,547.9842,438.063,550.24,447.65" style="stroke:#181818;stroke-width:1.0;"/><text fill="#000000" font-family="sans-serif" font-size="13" lengthAdjust="spacing" textLength="106" x="565.5" y="382.507">dcat:contactPoint</text></g><!--link dataset to license--><g id="link_dataset_license"><path codeLine="72" d="M708.69,314.7 C771.12,342.96 847.49,379.45 913.5,416.61 C930.16,425.99 942.7428,433.7991 958.4828,444.2591 " fill="none" id="dataset-to-license" style="stroke:#181818;stroke-width:1.0;"/><polygon fill="#181818" points="963.48,447.58,958.1981,439.2672,959.3157,444.8126,953.7703,445.9301,963.48,447.58" style="stroke:#181818;stroke-width:1.0;"/><text fill="#000000" font-family="sans-serif" font-size="13" lengthAdjust="spacing" textLength="96" x="853.5" y="382.507">dcterms:License</text></g><!--link qualitymeasurement to dataset--><g id="link_qualitymeasurement_dataset"><path codeLine="74" d="M1027.64,102.37 C932.26,136.25 808.7339,180.1218 714.6439,213.5418 " fill="none" id="qualitymeasurement-to-dataset" style="stroke:#181818;stroke-width:1.0;"/><polygon fill="#181818" points="708.99,215.55,718.8097,216.3069,713.7016,213.8765,716.1321,208.7684,708.99,215.55" style="stroke:#181818;stroke-width:1.0;"/><text fill="#000000" font-family="sans-serif" font-size="13" lengthAdjust="spacing" textLength="106" x="923.5" y="149.097">dqv:computedOn</text></g><!--link qualitymeasurement to metric--><g id="link_qualitymeasurement_metric"><path codeLine="75" d="M1177.35,104.66 C1188.74,130.9 1200.6213,158.296 1213.0813,187.006 " fill="none" id="qualitymeasurement-to-metric" style="stroke:#181818;stroke-width:1.0;"/><polygon fill="#181818" points="1215.47,192.51,1215.5563,182.6615,1213.4794,187.9233,1208.2176,185.8465,1215.47,192.51" style="stroke:#181818;stroke-width:1.0;"/><text fill="#000000" font-family="sans-serif" font-size="13" lengthAdjust="spacing" textLength="101" x="1198.5" y="149.097">dqv:inDimension</text></g><!--link catalog to license--><g id="link_catalog_license"><path codeLine="77" d="M701.96,82.35 C764.05,101.24 837.86,132.65 888.5,183.2 C964.08,258.65 995.6006,380.3592 1007.5206,441.9892 " fill="none" id="catalog-to-license" style="stroke:#181818;stroke-width:1.0;"/><polygon fill="#181818" points="1008.66,447.88,1010.8782,438.2842,1007.7105,442.971,1003.0237,439.8033,1008.66,447.88" style="stroke:#181818;stroke-width:1.0;"/><text fill="#000000" font-family="sans-serif" font-size="13" lengthAdjust="spacing" textLength="96" x="980.5" y="265.807">dcterms:License</text></g><!--link catalog to agent--><g id="link_catalog_agent"><path codeLine="78" d="M482.64,104.7 C441.82,126.03 395.62,153.13 357.5,183.2 C253.48,265.27 157.9469,383.3179 112.3269,443.1779 " fill="none" id="catalog-to-agent" style="stroke:#181818;stroke-width:1.0;"/><polygon fill="#181818" points="108.69,447.95,117.3267,443.2164,111.7207,443.9732,110.9639,438.3672,108.69,447.95" style="stroke:#181818;stroke-width:1.0;"/><text fill="#000000" font-family="sans-serif" font-size="13" lengthAdjust="spacing" textLength="85" x="358.5" y="265.807">dcat:publisher</text></g><!--link catalog to dataset--><g id="link_catalog_dataset"><path codeLine="79" d="M585.5,104.66 C585.5,127.97 585.5,150.54 585.5,176.75 " fill="none" id="catalog-to-dataset" style="stroke:#181818;stroke-width:1.0;"/><polygon fill="#181818" points="585.5,182.75,589.5,173.75,585.5,177.75,581.5,173.75,585.5,182.75" style="stroke:#181818;stroke-width:1.0;"/><text fill="#000000" font-family="sans-serif" font-size="13" lengthAdjust="spacing" textLength="81" x="586.5" y="149.097">dcat:resource</text></g><!--SRC=[lLJBRjim4BphAmZV4o1N8Z2Gs2qGr6bQ8_s0DRco2VCLab9i5FttKgIKY7QK82XGdzRSqUpEShWxmP6Wik585AeDEb_vlT0M72Z297XFVbSa_cw1xRVED9elZ3Jk-lfMWjv_DnmVtDtwRZudppiHiFfJLVcp6MSGw182U0mp0fxm7FU4d0LqojFOW0wY5kZ8mNFgWnDwIwukBwyA64VFdB1163s1YzNQsFy8K124gD8ua2a9-bWalOKW9dBAyAuzdf9Hmvd6HTGbpJPfP3ak9GOH9Bwhxf-6CEgdDb3JcsqaIzr05v7pkyhj9R06DMwjAiJbgYl1K7jCZ3B7avnJaaUqBGF7wJUXUMACRkEJT1cx0_z5WNYzdbEJYQx8fkdcafqsElYitI8VC8RU_rglYECrNQCtZMDuVXsrSGh2YMdERTZ9VzzG8q5-RpnT6CtGvZjaEVwSZCHY7TOhsA2SXd2iXHRXZMPJ6W-WR7cFBpcGuPIyCCzJI-yn7hEaGgNmVuleci23nLYFTvleyMYnkDCNbD1BeQApEv82K2hwsO0KuNYFu1k7QdXdJ_bOlHv_qdMHkWNPOE4bwqnBumj65pt2RyAZw9zgvvdkJvhti5KlBkQbxsd_EiQ7inBUnn6PQZs3Nw8JBVAlpgWIEzXmO0sxgBE4v6r3Szus6ody3bs9IQzzu8YS0LZuOKISOm4RrWmzMq9LzSQmJyHqusH6sIQExI5gdlYYzsJ_mSW1iKY_npzgPWoRaZ_6Z9liOAwtMQpu5m00]--></g></svg>