<?xml version="1.0" encoding="utf-8" standalone="no"?>
<!DOCTYPE svg PUBLIC "-//W3C//DTD SVG 1.1//EN"
  "http://www.w3.org/Graphics/SVG/1.1/DTD/svg11.dtd">
<svg xmlns:xlink="http://www.w3.org/1999/xlink" width="360pt" height="360pt" viewBox="0 0 360 360" xmlns="http://www.w3.org/2000/svg" version="1.1">
 <metadata>
  <rdf:RDF xmlns:dc="http://purl.org/dc/elements/1.1/" xmlns:cc="http://creativecommons.org/ns#" xmlns:rdf="http://www.w3.org/1999/02/22-rdf-syntax-ns#">
   <cc:Work>
    <dc:type rdf:resource="http://purl.org/dc/dcmitype/StillImage"/>
    <dc:date>2024-11-01T09:38:48.663109</dc:date>
    <dc:format>image/svg+xml</dc:format>
    <dc:creator>
     <cc:Agent>
      <dc:title>Matplotlib v3.9.2, https://matplotlib.org/</dc:title>
     </cc:Agent>
    </dc:creator>
   </cc:Work>
  </rdf:RDF>
 </metadata>
 <defs>
  <style type="text/css">*{stroke-linejoin: round; stroke-linecap: butt}</style>
 </defs>
 <g id="figure_1">
  <g id="patch_1">
   <path d="M 0 360 
L 360 360 
L 360 0 
L 0 0 
z
" style="fill: #ffffff"/>
  </g>
  <g id="axes_1">
   <g id="patch_2">
    <path d="M 45 320.4 
L 324 320.4 
L 324 43.2 
L 45 43.2 
z
" style="fill: #ffffff"/>
   </g>
   <g id="EdgeCollection_1">
    <path d="M 88.56399 98.801833 
L 178.879082 278.196062 
L 88.56399 98.801833 
L 81.865042 102.174384 
L 81.818889 85.403938 
L 95.262938 95.429283 
L 88.56399 98.801833 
" clip-path="url(#pc80abaa087)" style="fill: #bebebe; stroke: #bebebe; stroke-width: 2"/>
    <path d="M 280.43601 98.801833 
L 190.120918 278.196062 
L 280.43601 98.801833 
L 273.737062 95.429283 
L 287.181111 85.403938 
L 287.134958 102.174384 
L 280.43601 98.801833 
" clip-path="url(#pc80abaa087)" style="fill: #bebebe; stroke: #bebebe; stroke-width: 2"/>
   </g>
   <g id="VertexCollection_1">
    <path d="M 184.5 301.860976 
C 187.815039 301.860976 190.994748 300.543897 193.338835 298.19981 
C 195.682921 295.855724 197 292.676014 197 289.360976 
C 197 286.045937 195.682921 282.866227 193.338835 280.522141 
C 190.994748 278.178054 187.815039 276.860976 184.5 276.860976 
C 181.184961 276.860976 178.005252 278.178054 175.661165 280.522141 
C 173.317079 282.866227 172 286.045937 172 289.360976 
C 172 292.676014 173.317079 295.855724 175.661165 298.19981 
C 178.005252 300.543897 181.184961 301.860976 184.5 301.860976 
z
" clip-path="url(#pc80abaa087)" style="fill: #ff0000; stroke: #000000"/>
    <path d="M 76.197971 86.739024 
C 79.51301 86.739024 82.69272 85.421946 85.036806 83.077859 
C 87.380893 80.733773 88.697971 77.554063 88.697971 74.239024 
C 88.697971 70.923986 87.380893 67.744276 85.036806 65.40019 
C 82.69272 63.056103 79.51301 61.739024 76.197971 61.739024 
C 72.882933 61.739024 69.703223 63.056103 67.359137 65.40019 
C 65.01505 67.744276 63.697971 70.923986 63.697971 74.239024 
C 63.697971 77.554063 65.01505 80.733773 67.359137 83.077859 
C 69.703223 85.421946 72.882933 86.739024 76.197971 86.739024 
z
" clip-path="url(#pc80abaa087)" style="fill: #add8e6; stroke: #000000"/>
    <path d="M 292.802029 86.739024 
C 296.117067 86.739024 299.296777 85.421946 301.640863 83.077859 
C 303.98495 80.733773 305.302029 77.554063 305.302029 74.239024 
C 305.302029 70.923986 303.98495 67.744276 301.640863 65.40019 
C 299.296777 63.056103 296.117067 61.739024 292.802029 61.739024 
C 289.48699 61.739024 286.30728 63.056103 283.963194 65.40019 
C 281.619107 67.744276 280.302029 70.923986 280.302029 74.239024 
C 280.302029 77.554063 281.619107 80.733773 283.963194 83.077859 
C 286.30728 85.421946 289.48699 86.739024 292.802029 86.739024 
z
" clip-path="url(#pc80abaa087)" style="fill: #add8e6; stroke: #000000"/>
   </g>
   <g id="text_1">
    <g clip-path="url(#pc80abaa087)">
     <!-- derived data -->
     <g transform="translate(146.391562 317.672226) scale(0.12 -0.12)">
      <defs>
       <path id="DejaVuSans-64" d="M 2906 2969 
L 2906 4863 
L 3481 4863 
L 3481 0 
L 2906 0 
L 2906 525 
Q 2725 213 2448 61 
Q 2172 -91 1784 -91 
Q 1150 -91 751 415 
Q 353 922 353 1747 
Q 353 2572 751 3078 
Q 1150 3584 1784 3584 
Q 2172 3584 2448 3432 
Q 2725 3281 2906 2969 
z
M 947 1747 
Q 947 1113 1208 752 
Q 1469 391 1925 391 
Q 2381 391 2643 752 
Q 2906 1113 2906 1747 
Q 2906 2381 2643 2742 
Q 2381 3103 1925 3103 
Q 1469 3103 1208 2742 
Q 947 2381 947 1747 
z
" transform="scale(0.015625)"/>
       <path id="DejaVuSans-65" d="M 3597 1894 
L 3597 1613 
L 953 1613 
Q 991 1019 1311 708 
Q 1631 397 2203 397 
Q 2534 397 2845 478 
Q 3156 559 3463 722 
L 3463 178 
Q 3153 47 2828 -22 
Q 2503 -91 2169 -91 
Q 1331 -91 842 396 
Q 353 884 353 1716 
Q 353 2575 817 3079 
Q 1281 3584 2069 3584 
Q 2775 3584 3186 3129 
Q 3597 2675 3597 1894 
z
M 3022 2063 
Q 3016 2534 2758 2815 
Q 2500 3097 2075 3097 
Q 1594 3097 1305 2825 
Q 1016 2553 972 2059 
L 3022 2063 
z
" transform="scale(0.015625)"/>
       <path id="DejaVuSans-72" d="M 2631 2963 
Q 2534 3019 2420 3045 
Q 2306 3072 2169 3072 
Q 1681 3072 1420 2755 
Q 1159 2438 1159 1844 
L 1159 0 
L 581 0 
L 581 3500 
L 1159 3500 
L 1159 2956 
Q 1341 3275 1631 3429 
Q 1922 3584 2338 3584 
Q 2397 3584 2469 3576 
Q 2541 3569 2628 3553 
L 2631 2963 
z
" transform="scale(0.015625)"/>
       <path id="DejaVuSans-69" d="M 603 3500 
L 1178 3500 
L 1178 0 
L 603 0 
L 603 3500 
z
M 603 4863 
L 1178 4863 
L 1178 4134 
L 603 4134 
L 603 4863 
z
" transform="scale(0.015625)"/>
       <path id="DejaVuSans-76" d="M 191 3500 
L 800 3500 
L 1894 563 
L 2988 3500 
L 3597 3500 
L 2284 0 
L 1503 0 
L 191 3500 
z
" transform="scale(0.015625)"/>
       <path id="DejaVuSans-20" transform="scale(0.015625)"/>
       <path id="DejaVuSans-61" d="M 2194 1759 
Q 1497 1759 1228 1600 
Q 959 1441 959 1056 
Q 959 750 1161 570 
Q 1363 391 1709 391 
Q 2188 391 2477 730 
Q 2766 1069 2766 1631 
L 2766 1759 
L 2194 1759 
z
M 3341 1997 
L 3341 0 
L 2766 0 
L 2766 531 
Q 2569 213 2275 61 
Q 1981 -91 1556 -91 
Q 1019 -91 701 211 
Q 384 513 384 1019 
Q 384 1609 779 1909 
Q 1175 2209 1959 2209 
L 2766 2209 
L 2766 2266 
Q 2766 2663 2505 2880 
Q 2244 3097 1772 3097 
Q 1472 3097 1187 3025 
Q 903 2953 641 2809 
L 641 3341 
Q 956 3463 1253 3523 
Q 1550 3584 1831 3584 
Q 2591 3584 2966 3190 
Q 3341 2797 3341 1997 
z
" transform="scale(0.015625)"/>
       <path id="DejaVuSans-74" d="M 1172 4494 
L 1172 3500 
L 2356 3500 
L 2356 3053 
L 1172 3053 
L 1172 1153 
Q 1172 725 1289 603 
Q 1406 481 1766 481 
L 2356 481 
L 2356 0 
L 1766 0 
Q 1100 0 847 248 
Q 594 497 594 1153 
L 594 3053 
L 172 3053 
L 172 3500 
L 594 3500 
L 594 4494 
L 1172 4494 
z
" transform="scale(0.015625)"/>
      </defs>
      <use xlink:href="#DejaVuSans-64"/>
      <use xlink:href="#DejaVuSans-65" x="63.476562"/>
      <use xlink:href="#DejaVuSans-72" x="125"/>
      <use xlink:href="#DejaVuSans-69" x="166.113281"/>
      <use xlink:href="#DejaVuSans-76" x="193.896484"/>
      <use xlink:href="#DejaVuSans-65" x="253.076172"/>
      <use xlink:href="#DejaVuSans-64" x="314.599609"/>
      <use xlink:href="#DejaVuSans-20" x="378.076172"/>
      <use xlink:href="#DejaVuSans-64" x="409.863281"/>
      <use xlink:href="#DejaVuSans-61" x="473.339844"/>
      <use xlink:href="#DejaVuSans-74" x="534.619141"/>
      <use xlink:href="#DejaVuSans-61" x="573.828125"/>
     </g>
    </g>
   </g>
   <g id="text_2">
    <g clip-path="url(#pc80abaa087)">
     <!-- test data -->
     <g transform="translate(49.254221 102.550274) scale(0.12 -0.12)">
      <defs>
       <path id="DejaVuSans-73" d="M 2834 3397 
L 2834 2853 
Q 2591 2978 2328 3040 
Q 2066 3103 1784 3103 
Q 1356 3103 1142 2972 
Q 928 2841 928 2578 
Q 928 2378 1081 2264 
Q 1234 2150 1697 2047 
L 1894 2003 
Q 2506 1872 2764 1633 
Q 3022 1394 3022 966 
Q 3022 478 2636 193 
Q 2250 -91 1575 -91 
Q 1294 -91 989 -36 
Q 684 19 347 128 
L 347 722 
Q 666 556 975 473 
Q 1284 391 1588 391 
Q 1994 391 2212 530 
Q 2431 669 2431 922 
Q 2431 1156 2273 1281 
Q 2116 1406 1581 1522 
L 1381 1569 
Q 847 1681 609 1914 
Q 372 2147 372 2553 
Q 372 3047 722 3315 
Q 1072 3584 1716 3584 
Q 2034 3584 2315 3537 
Q 2597 3491 2834 3397 
z
" transform="scale(0.015625)"/>
      </defs>
      <use xlink:href="#DejaVuSans-74"/>
      <use xlink:href="#DejaVuSans-65" x="39.208984"/>
      <use xlink:href="#DejaVuSans-73" x="100.732422"/>
      <use xlink:href="#DejaVuSans-74" x="152.832031"/>
      <use xlink:href="#DejaVuSans-20" x="192.041016"/>
      <use xlink:href="#DejaVuSans-64" x="223.828125"/>
      <use xlink:href="#DejaVuSans-61" x="287.304688"/>
      <use xlink:href="#DejaVuSans-74" x="348.583984"/>
      <use xlink:href="#DejaVuSans-61" x="387.792969"/>
     </g>
    </g>
   </g>
   <g id="text_3">
    <g clip-path="url(#pc80abaa087)">
     <!-- tst data -->
     <g transform="translate(269.550154 102.550274) scale(0.12 -0.12)">
      <use xlink:href="#DejaVuSans-74"/>
      <use xlink:href="#DejaVuSans-73" x="39.208984"/>
      <use xlink:href="#DejaVuSans-74" x="91.308594"/>
      <use xlink:href="#DejaVuSans-20" x="130.517578"/>
      <use xlink:href="#DejaVuSans-64" x="162.304688"/>
      <use xlink:href="#DejaVuSans-61" x="225.78125"/>
      <use xlink:href="#DejaVuSans-74" x="287.060547"/>
      <use xlink:href="#DejaVuSans-61" x="326.269531"/>
     </g>
    </g>
   </g>
   <g id="matplotlib.axis_1"/>
   <g id="matplotlib.axis_2"/>
  </g>
 </g>
 <defs>
  <clipPath id="pc80abaa087">
   <rect x="45" y="43.2" width="279" height="277.2"/>
  </clipPath>
 </defs>
</svg>
